<svg width="16" height="16" viewBox="0 0 16 16" fill="none" xmlns="http://www.w3.org/2000/svg">
<path d="M7.66687 8.00016H3.61248M3.49756 8.53163L2.82772 10.5326C2.46085 11.6284 2.27742 12.1764 2.40906 12.5138C2.52337 12.8068 2.7689 13.029 3.07187 13.1136C3.42074 13.2109 3.94767 12.9738 5.00154 12.4996L11.7578 9.45923C12.7865 8.9963 13.3008 8.7649 13.4597 8.44336C13.5979 8.16403 13.5979 7.83623 13.4597 7.5569C13.3008 7.23543 12.7865 7.00396 11.7578 6.54106L4.98989 3.49552C3.93919 3.02271 3.41385 2.7863 3.06533 2.88328C2.76265 2.9675 2.51715 3.18907 2.40243 3.48156C2.27034 3.81835 2.45181 4.3651 2.81477 5.45861L3.49886 7.5197C3.56119 7.7075 3.59237 7.80143 3.60467 7.89743C3.61559 7.9827 3.61547 8.06896 3.60434 8.15416C3.59179 8.25016 3.56038 8.34396 3.49756 8.53163Z" stroke="white" stroke-linecap="round" stroke-linejoin="round"/>
</svg>
